<svg width="104" height="20" viewBox="0 0 104 20" fill="none" xmlns="http://www.w3.org/2000/svg">
<g clip-path="url(#clip0_7537_84698)">
<path fill-rule="evenodd" clip-rule="evenodd" d="M67.7296 4.40764H59.307C59.2205 4.40764 59.1686 4.4586 59.1686 4.54352C58.9265 8.26327 58.2347 12.3057 57.197 15.5669V15.7197C57.2489 15.7707 57.2835 15.7707 57.3354 15.7707H60.2409C60.2928 15.7707 60.3793 15.7197 60.3793 15.6858C61.1748 13.155 61.832 9.84289 62.0569 7.04034H64.8241V15.6348C64.8241 15.7197 64.8759 15.7707 64.9624 15.7707H67.7296C67.8161 15.7707 67.868 15.7197 67.868 15.6348V4.59448C67.868 4.50955 67.8161 4.40764 67.7296 4.40764ZM103.34 4.40764H100.573C100.486 4.40764 100.434 4.4586 100.434 4.54352V13.087C99.8289 13.2739 99.2236 13.3248 98.5664 13.3248C96.7331 13.3248 96.3181 12.7813 96.3181 10.3864V4.59448C96.3181 4.50955 96.2662 4.4586 96.1797 4.4586H93.4125C93.326 4.4586 93.2742 4.50955 93.2742 4.59448V10.7601C93.2742 14.6157 94.5886 16.1444 97.9957 16.1444C99.9154 16.1444 102.112 15.6348 103.374 15.1762C103.426 15.1762 103.461 15.0913 103.461 15.0403V4.59448C103.478 4.50955 103.426 4.40764 103.34 4.40764ZM45.0733 4.4586H42.2715C42.185 4.4586 42.1332 4.50955 42.1332 4.54352C41.7181 6.24204 40.8187 9.09554 39.6081 12.0849L36.789 4.50955C36.789 4.4586 36.7026 4.42463 36.6507 4.42463H33.8489C33.797 4.42463 33.7624 4.47558 33.7105 4.47558C33.6587 4.52654 33.6587 4.56051 33.7105 4.61146L37.9305 15.9236C37.5154 16.7898 37.0831 17.5372 36.7199 18.2166C36.4431 18.7261 36.1664 19.2357 35.8724 19.7792C35.8205 19.8302 35.8724 19.8641 35.8724 19.9151C35.9243 19.966 35.9589 20 36.0108 20H39.0547C39.1066 20 39.1411 19.949 39.193 19.9151C39.7119 18.9469 40.3691 17.5711 40.9744 16.1953C42.7558 12.051 44.2085 8.19533 45.2808 4.66242C45.2808 4.61147 45.2808 4.57749 45.2289 4.52654C45.1598 4.4586 45.1252 4.4586 45.0733 4.4586ZM55.087 13.138C55.087 13.087 55.0351 13.0531 55.0006 13.0531H54.8622C54.205 13.2909 52.9425 13.5117 52.0604 13.5117C50.1407 13.5117 49.2587 13.0021 49.2587 10.1147C49.2587 7.82166 49.5354 6.71762 52.0604 6.71762C52.7695 6.71762 53.4613 6.80255 54.3088 7.0913C54.3952 7.0913 54.4471 7.0913 54.499 7.00637C54.8276 6.41189 55.2081 5.7155 55.6232 4.7983V4.64544C55.6232 4.59448 55.5713 4.56051 55.5367 4.56051C54.3779 4.18684 53.0289 4 51.8529 4C47.8232 4 46.0418 5.8344 46.0418 10.0127C46.0418 14.242 47.8232 16.1274 51.8529 16.1274C52.8387 16.1274 54.8449 15.8896 55.7788 15.5329C55.8653 15.482 55.8653 15.448 55.8653 15.3461L55.087 13.138ZM81.2542 4.4586H78.4524C78.4006 4.4586 78.3141 4.50955 78.3141 4.54352C77.899 6.24204 76.9997 9.09554 75.789 12.0849L72.97 4.50955C72.97 4.4586 72.8835 4.42463 72.8316 4.42463H70.0298C69.9779 4.42463 69.9433 4.47558 69.8915 4.47558C69.8396 4.52654 69.8396 4.56051 69.8915 4.61146L74.1114 15.9236C73.6963 16.7898 73.264 17.4862 72.9008 18.2166C72.6241 18.7261 72.3473 19.2357 72.0533 19.7792C72.0014 19.8302 72.0533 19.8641 72.0533 19.9151C72.1052 19.966 72.1398 20 72.1917 20H75.2356C75.2875 20 75.3221 19.949 75.3739 19.9151C75.8928 18.9469 76.55 17.5711 77.1553 16.1953C78.9367 12.051 80.3895 8.19533 81.4099 4.66242C81.4099 4.61147 81.4099 4.57749 81.358 4.52654C81.3407 4.4586 81.2888 4.4586 81.2542 4.4586ZM91.5447 4.40764H83.3988C83.3123 4.40764 83.2604 4.4586 83.2604 4.54352V15.6178C83.2604 15.7028 83.3123 15.7537 83.3988 15.7537H86.166C86.2524 15.7537 86.3043 15.7028 86.3043 15.6178V7.07431H90.5589C90.6107 7.07431 90.6972 7.02335 90.6972 6.98938C91.0258 6.25902 91.3544 5.42675 91.683 4.64544V4.50955C91.6311 4.4586 91.5793 4.40764 91.5447 4.40764Z" fill="#EE3F58"/>
<path fill-rule="evenodd" clip-rule="evenodd" d="M15.1705 13.6134C13.3372 13.6134 12.7838 13.1039 12.7838 10.1145C12.7838 6.90429 13.3891 6.61554 15.1705 6.61554C16.9519 6.61554 17.6091 6.8873 17.6091 10.1145C17.6091 13.1378 16.9865 13.6134 15.1705 13.6134ZM15.1705 4.08475C11.1927 4.08475 9.65343 5.73231 9.65343 10.0635C9.65343 14.4287 11.1927 16.1272 15.1705 16.1272C19.1483 16.1272 20.7395 14.4287 20.7395 10.0635C20.7395 5.80025 19.1483 4.08475 15.1705 4.08475ZM31.6871 13.1378C31.6871 13.0869 31.6352 13.0529 31.6007 13.0529H31.4623C30.8051 13.2907 29.5426 13.5115 28.6605 13.5115C26.7408 13.5115 25.8588 13.002 25.8588 10.1145C25.8588 7.82148 26.1355 6.71745 28.6605 6.71745C29.3696 6.71745 30.0614 6.80237 30.9089 7.09112C30.9607 7.09112 31.0472 7.09112 31.0991 7.0062C31.4277 6.41172 31.8082 5.71532 32.2233 4.79813V4.64526C32.2233 4.59431 32.1714 4.56034 32.1368 4.56034C31.0645 4.23762 29.6982 4.05078 28.5395 4.05078C24.5097 4.05078 22.7284 5.88518 22.7284 10.0635C22.7284 14.2928 24.5097 16.1782 28.5395 16.1782C29.5253 16.1782 31.5315 15.9404 32.4654 15.5837C32.5519 15.5327 32.5519 15.4988 32.5519 15.3969L31.6871 13.1378ZM8.80598 4.40747H0.660088C0.573613 4.40747 0.521729 4.50938 0.521729 4.59431V15.6686C0.521729 15.7535 0.573613 15.8045 0.660088 15.8045H3.42727C3.51375 15.8045 3.56563 15.7535 3.56563 15.6686V7.07414H7.82017C7.87206 7.07414 7.90665 7.02318 7.95853 6.98921C8.28714 6.25885 8.61574 5.42658 8.94434 4.64526V4.50938C8.89246 4.45842 8.85787 4.40747 8.80598 4.40747Z" fill="#0065B1"/>
</g>
<defs>
<clipPath id="clip0_7537_84698">
<rect width="102.957" height="16" fill="white" transform="translate(0.521729 4)"/>
</clipPath>
</defs>
</svg>
