<svg width="94" height="24" viewBox="0 0 94 24" fill="none" xmlns="http://www.w3.org/2000/svg">
<path d="M21.7111 4.66211C22.2736 5.39912 22.7498 6.19981 23.13 7.04812L12.344 15.1061L7.83618 12.2424V8.7971L12.344 11.6609L21.7111 4.66211Z" fill="#21A038"/>
<path d="M3.23556 11.9989C3.23556 11.8443 3.23928 11.6907 3.24672 11.538L0.514878 11.4023C0.50558 11.6002 0.500003 11.8 0.500003 12.0017C0.498841 13.5771 0.804613 15.1373 1.39979 16.5926C1.99495 18.0481 2.86781 19.37 3.96827 20.4828L5.90603 18.5199C5.05894 17.6648 4.38693 16.6485 3.92864 15.5295C3.47035 14.4104 3.23481 13.2105 3.23556 11.9989Z" fill="url(#paint0_linear_7537_84694)"/>
<path d="M12.3414 2.77245C12.4939 2.77245 12.6454 2.77811 12.796 2.78564L12.9327 0.0160966C12.7369 0.00667317 12.5397 0.00196203 12.3414 0.00196203C10.7861 3.98754e-05 9.24586 0.30948 7.80896 0.912513C6.37205 1.51555 5.06684 2.4003 3.96826 3.51596L5.90603 5.4798C6.74974 4.62103 7.75264 3.93973 8.85705 3.47511C9.96147 3.01049 11.1456 2.77169 12.3414 2.77245Z" fill="url(#paint1_linear_7537_84694)"/>
<path d="M12.3415 21.2279C12.1891 21.2279 12.0375 21.2279 11.886 21.2156L11.7493 23.9842C11.9458 23.9943 12.1432 23.9993 12.3415 23.9993C13.8962 24.0009 15.4357 23.6913 16.8718 23.0881C18.308 22.4849 19.6123 21.6 20.7101 20.4844L18.776 18.5215C17.9322 19.3798 16.9294 20.0607 15.8252 20.5252C14.721 20.9896 13.5371 21.2285 12.3415 21.2279Z" fill="url(#paint2_linear_7537_84694)"/>
<path d="M17.4743 4.38191L19.7766 2.66214C17.6723 0.935255 15.0456 -0.00479364 12.3379 1.83827e-05V2.77145C14.1714 2.76914 15.9624 3.3307 17.4743 4.38191Z" fill="url(#paint3_linear_7537_84694)"/>
<path d="M24.182 12C24.1835 11.2791 24.1213 10.5594 23.996 9.84961L21.4474 11.7531C21.4474 11.8352 21.4474 11.9171 21.4474 12C21.4481 13.2894 21.1814 14.5646 20.6647 15.7428C20.1479 16.9211 19.3926 17.9761 18.4478 18.8395L20.2861 20.8986C21.5144 19.7748 22.496 18.4019 23.1671 16.869C23.8384 15.336 24.1841 13.6771 24.182 12Z" fill="#21A038"/>
<path d="M12.3414 21.2275C11.0691 21.2279 9.81078 20.9576 8.64803 20.4339C7.48534 19.9102 6.44411 19.1449 5.59178 18.1875L3.56104 20.0496C4.66982 21.2946 6.02444 22.2896 7.53706 22.97C9.04968 23.6503 10.6865 24.0009 12.3414 23.9989V21.2275Z" fill="url(#paint4_linear_7537_84694)"/>
<path d="M6.2352 5.16058L4.39785 3.10156C3.16915 4.22519 2.18721 5.59801 1.51571 7.13098C0.844218 8.66395 0.498169 10.3228 0.500007 12.0001H3.23557C3.235 10.7108 3.50174 9.43561 4.01847 8.25738C4.53521 7.07919 5.29043 6.02412 6.2352 5.16058Z" fill="url(#paint5_linear_7537_84694)"/>
<path d="M39.099 17.192C37.4777 17.192 36.123 16.68 35.035 15.656C33.9577 14.6213 33.419 13.2933 33.419 11.672C33.419 10.0507 33.9577 8.728 35.035 7.704C36.123 6.66933 37.4777 6.152 39.099 6.152C41.0937 6.152 42.5817 7.02133 43.563 8.76L41.611 9.72C41.3763 9.272 41.0297 8.904 40.571 8.616C40.123 8.31733 39.6323 8.168 39.099 8.168C38.1283 8.168 37.3283 8.49867 36.699 9.16C36.0697 9.82133 35.755 10.6587 35.755 11.672C35.755 12.6853 36.0697 13.5227 36.699 14.184C37.3283 14.8453 38.1283 15.176 39.099 15.176C39.6323 15.176 40.123 15.032 40.571 14.744C41.0297 14.456 41.3763 14.0827 41.611 13.624L43.563 14.568C42.5497 16.3173 41.0617 17.192 39.099 17.192ZM44.9154 6.328H52.7074V8.328H47.1874V10.216H49.9554C51.054 10.216 51.918 10.5413 52.5474 11.192C53.1767 11.8427 53.4914 12.648 53.4914 13.608C53.4914 14.568 53.1767 15.3733 52.5474 16.024C51.918 16.6747 51.054 17 49.9554 17H44.9154V6.328ZM49.6514 12.216H47.1874V15H49.6514C50.0994 15 50.462 14.872 50.7394 14.616C51.0274 14.36 51.1714 14.024 51.1714 13.608C51.1714 13.1813 51.0274 12.8453 50.7394 12.6C50.462 12.344 50.0994 12.216 49.6514 12.216ZM62.4518 17H54.8997V6.328H62.4518V8.328H57.1718V10.584H62.3398V12.584H57.1718V15H62.4518V17ZM66.4999 17H64.2279V6.328H69.2199C70.3399 6.328 71.2145 6.65867 71.8439 7.32C72.4839 7.97067 72.8039 8.78667 72.8039 9.768C72.8039 10.7387 72.4839 11.5547 71.8439 12.216C71.2039 12.8773 70.3292 13.208 69.2199 13.208H66.4999V17ZM68.9159 11.208C69.3745 11.208 69.7479 11.08 70.0359 10.824C70.3345 10.5573 70.4839 10.2053 70.4839 9.768C70.4839 9.33067 70.3345 8.984 70.0359 8.728C69.7479 8.46133 69.3745 8.328 68.9159 8.328H66.4999V11.208H68.9159Z" fill="#629B49"/>
<path d="M80.578 17H78.306V6.328H80.578V17ZM86.9046 17H82.6966V6.328H86.9046C88.5793 6.328 89.9393 6.81867 90.9846 7.8C92.0406 8.78133 92.5686 10.072 92.5686 11.672C92.5686 13.272 92.046 14.5627 91.0006 15.544C89.9553 16.5147 88.59 17 86.9046 17ZM86.9046 15C87.9286 15 88.7393 14.68 89.3366 14.04C89.9446 13.4 90.2486 12.6107 90.2486 11.672C90.2486 10.6907 89.9553 9.89067 89.3686 9.272C88.782 8.64267 87.9606 8.328 86.9046 8.328H84.9686V15H86.9046Z" fill="#394048"/>
<defs>
<linearGradient id="paint0_linear_7537_84694" x1="4.52152" y1="20.1369" x2="1.46093" y2="11.4069" gradientUnits="userSpaceOnUse">
<stop offset="0.14" stop-color="#F1E813"/>
<stop offset="0.3" stop-color="#E6E418"/>
<stop offset="0.58" stop-color="#C9DA26"/>
<stop offset="0.89" stop-color="#A2CC39"/>
</linearGradient>
<linearGradient id="paint1_linear_7537_84694" x1="4.74931" y1="4.00598" x2="12.4732" y2="1.1016" gradientUnits="userSpaceOnUse">
<stop offset="0.06" stop-color="#0FA7DF"/>
<stop offset="0.54" stop-color="#0098F8"/>
<stop offset="0.92" stop-color="#0290EA"/>
</linearGradient>
<linearGradient id="paint2_linear_7537_84694" x1="11.5689" y1="22.3266" x2="20.2851" y2="20.3837" gradientUnits="userSpaceOnUse">
<stop offset="0.12" stop-color="#A2CC39"/>
<stop offset="0.28" stop-color="#86C239"/>
<stop offset="0.87" stop-color="#219F38"/>
</linearGradient>
<linearGradient id="paint3_linear_7537_84694" x1="11.7689" y1="0.928226" x2="19.2283" y2="3.19962" gradientUnits="userSpaceOnUse">
<stop offset="0.06" stop-color="#0290EA"/>
<stop offset="0.79" stop-color="#0C89CA"/>
</linearGradient>
<linearGradient id="paint4_linear_7537_84694" x1="4.24725" y1="19.7122" x2="12.3742" y2="22.7092" gradientUnits="userSpaceOnUse">
<stop offset="0.13" stop-color="#F1E813"/>
<stop offset="0.3" stop-color="#EAE616"/>
<stop offset="0.53" stop-color="#D8DF1F"/>
<stop offset="0.8" stop-color="#BAD52D"/>
<stop offset="0.98" stop-color="#A2CC39"/>
</linearGradient>
<linearGradient id="paint5_linear_7537_84694" x1="1.5191" y1="12.3356" x2="4.84722" y2="3.79289" gradientUnits="userSpaceOnUse">
<stop offset="0.07" stop-color="#A2CC39"/>
<stop offset="0.26" stop-color="#81C45E"/>
<stop offset="0.92" stop-color="#0FA7DF"/>
</linearGradient>
</defs>
</svg>
