<svg width="20" height="30" viewBox="0 0 20 30" fill="none" xmlns="http://www.w3.org/2000/svg">
<path d="M9.0625 11.9263L6.25 9.19875L7.41125 8.0375L9.0625 9.60375L12.5887 5.98875L13.75 7.15125L9.0625 11.9263ZM18.6575 7.1525C18.055 8.915 18.0525 8.57625 18.6575 10.3463C18.72 10.53 18.75 10.7175 18.75 10.9025C18.75 11.4638 18.4725 12.0063 17.9812 12.3475C16.4112 13.435 16.6187 13.1612 16.0287 14.9312C15.7812 15.67 15.0662 16.1688 14.26 16.1688H14.2562C12.32 16.1625 12.6562 16.0588 11.0962 17.155C10.7687 17.385 10.385 17.5 10 17.5C9.615 17.5 9.23125 17.385 8.905 17.1563C7.34375 16.0588 7.68 16.1637 5.745 16.17H5.74C4.93375 16.17 4.22 15.6713 3.97375 14.9325C3.3825 13.1613 3.585 13.435 2.02125 12.3487C1.5275 12.0062 1.25 11.4638 1.25 10.9025C1.25 10.7175 1.28 10.53 1.3425 10.3475C1.94625 8.58375 1.9475 8.92375 1.3425 7.15375C1.28 6.97 1.25 6.7825 1.25 6.5975C1.25 6.035 1.5275 5.49375 2.02 5.15125C3.58375 4.06625 3.38125 4.34125 3.9725 2.5675C4.21875 1.82875 4.93375 1.33 5.73875 1.33H5.74375C7.675 1.33625 7.3325 1.44875 8.90375 0.3425C9.23125 0.11375 9.615 0 10 0C10.385 0 10.7687 0.11375 11.095 0.3425C12.655 1.44 12.32 1.33625 14.255 1.33H14.2587C15.0662 1.33 15.78 1.82875 16.0275 2.5675C16.6187 4.3375 16.4112 4.06375 17.98 5.15125C18.4725 5.4925 18.75 6.035 18.75 6.59625C18.75 6.78125 18.72 6.97 18.6575 7.1525ZM15.9375 8.75C15.9375 5.47125 13.2787 2.8125 10 2.8125C6.72125 2.8125 4.0625 5.47125 4.0625 8.75C4.0625 12.0287 6.72125 14.6875 10 14.6875C13.2787 14.6875 15.9375 12.0275 15.9375 8.75ZM6.70625 18.6637C5.74875 18.6637 4.9925 18.5713 4.365 18.3975C3.98 22.2325 2.66625 25.11 0 27.8875C1.0675 28.0212 2.4375 27.77 3.54125 27.1875C3.9375 27.9825 4.35375 28.975 4.5 30C7.01125 27.1262 8.5825 23.6825 9.1675 19.9112C7.98875 19.685 7.625 19.2912 6.70625 18.6637V18.6637ZM13.2937 18.6637C12.3725 19.2975 11.99 19.6887 10.8337 19.9112C11.4212 23.6825 12.9912 27.1262 15.5 30C15.645 28.975 16.0612 27.9825 16.4587 27.1875C17.5625 27.7688 18.9325 28.0212 20 27.8875C17.3375 25.1137 16.04 22.2238 15.6512 18.3938C15.0225 18.57 14.2612 18.6637 13.2937 18.6637V18.6637Z" fill="#09A3BC"/>
</svg>
