<svg width="221" height="24" viewBox="0 0 221 24" fill="none" xmlns="http://www.w3.org/2000/svg">
<path fill-rule="evenodd" clip-rule="evenodd" d="M16.8 0H0V24H16.8L19.2 21.6V2.4L16.8 0ZM14.4 18.24L13.44 19.2H4.8V4.8H13.44L14.4 5.76V18.24Z" fill="#09A3BC"/>
<path fill-rule="evenodd" clip-rule="evenodd" d="M26.4 0L24 2.4V24H40.8L43.2 21.6V0H26.4ZM38.4 18.24L37.44 19.2H28.8V5.76L29.76 4.8H38.4V18.24Z" fill="#09A3BC"/>
<path d="M64.824 24H48V2.376L50.376 0H64.824L67.2 2.376V9.6H62.4V4.8H52.8V19.2H62.4V14.4H67.2V21.624L64.824 24Z" fill="#09A3BC"/>
<path fill-rule="evenodd" clip-rule="evenodd" d="M72 24V2.4L74.4 0H76.8V19.2H85.44L86.4 18.24V2.4L88.8 0H91.2V21.6L88.8 24H72Z" fill="#09A3BC"/>
<path fill-rule="evenodd" clip-rule="evenodd" d="M105.6 0H100.8V4.8H105.6V0ZM105.6 19.2H100.8V24H105.6V19.2ZM100.8 9.6H105.6V14.4H100.8V9.6Z" fill="#09A3BC"/>
<path fill-rule="evenodd" clip-rule="evenodd" d="M136.8 0L134.4 2.4V24H151.2L153.6 21.6V0H136.8ZM148.8 18.24L147.84 19.2H139.2V5.76L140.16 4.8H148.8V18.24Z" fill="#033A42"/>
<path d="M196.824 24H180V2.376L182.376 0H196.824L199.2 2.376V9.6H194.4V4.8H184.8V19.2H194.4V14.4H199.2V21.624L196.824 24Z" fill="#033A42"/>
<path d="M129.6 4.8V0H115.2V24H120V14.4H127.2V9.6H120V4.8H129.6Z" fill="#033A42"/>
<path d="M220.8 4.8V0H204V24H220.8V19.2H208.8V14.4H216V9.6H208.8V4.8H220.8Z" fill="#033A42"/>
<path d="M177.6 24L171.648 16.56L175.2 12.984V3.816L171.384 0H158.4V24H163.2V16.8H165L170.4 24H177.6ZM163.2 4.8H169.416L170.4 5.784V10.992L169.416 11.976H163.2V4.8Z" fill="#033A42"/>
</svg>
